<?xml version="1.0" encoding="utf-8"?>
<!-- Generator: Adobe Illustrator 27.9.0, SVG Export Plug-In . SVG Version: 6.00 Build 0)  -->
<svg version="1.1" id="Layer_1" xmlns="http://www.w3.org/2000/svg" xmlns:xlink="http://www.w3.org/1999/xlink" x="0px" y="0px"
	 viewBox="0 0 465.83 423.93" enable-background="new 0 0 465.83 423.93" xml:space="preserve">
<g>
	<g>
		<polygon fill="#F03057" points="286.21,277.73 232.76,308.12 179.96,277.94 233.05,247.36 		"/>
		<polygon fill="#B2003C" points="179.96,185.08 179.96,277.94 126.47,247.36 126.47,215.98 		"/>
		<polygon fill="#5F0020" points="286.21,185.4 286.21,277.73 233.05,247.36 233.05,154.62 		"/>
		<polygon fill="#B2003C" points="339.63,154.62 339.63,247.36 286.21,277.73 286.21,185.4 		"/>
		<polygon fill="#5F0020" points="339.63,92.76 339.63,154.62 286.21,123.79 286.11,62.08 		"/>
		<polygon fill="#F03057" points="286.11,62.08 126.47,154.62 126.47,92.76 232.76,31.5 		"/>
		<polygon fill="#F03057" points="339.63,154.62 286.21,185.4 233.05,154.62 286.21,123.79 		"/>
	</g>
	<g>
		<path fill="#555555" d="M54.18,345.41v47.01h-4.77v-47.01h-14.8v-4.37h34.4v4.37H54.18z"/>
		<path fill="#555555" d="M77.47,392.42v-51.38h25.05v4.37H82.24v18.85h18.77v4.3H82.24v19.53h21.43v4.34h-26.2V392.42z"/>
		<path fill="#555555" d="M114.38,392.42v-51.38h14.05c2.13,0,4.04,0.29,5.75,0.86c1.71,0.57,3.17,1.38,4.37,2.42
			c1.21,1.04,2.13,2.29,2.78,3.74s0.97,3.06,0.97,4.8c0,1.48-0.2,2.87-0.61,4.16s-0.99,2.47-1.76,3.53
			c-0.76,1.06-1.7,1.98-2.81,2.76s-2.37,1.39-3.78,1.84v0.14c1.72,0.17,3.28,0.59,4.69,1.25c1.41,0.67,2.62,1.54,3.62,2.62
			c1,1.07,1.78,2.33,2.33,3.78s0.82,3.03,0.82,4.75c0,2.17-0.39,4.16-1.18,5.97c-0.79,1.8-1.89,3.36-3.31,4.66s-3.11,2.31-5.07,3.03
			c-1.96,0.72-4.12,1.08-6.49,1.08h-14.37V392.42z M119.14,345.41v18.24h6.66c1.74,0,3.32-0.23,4.73-0.68
			c1.41-0.45,2.62-1.11,3.62-1.97c1-0.86,1.77-1.9,2.31-3.12s0.81-2.59,0.81-4.12c0-5.57-3.46-8.35-10.39-8.35H119.14z
			 M119.14,367.95v20.14h8.85c3.8,0,6.72-0.89,8.76-2.67c2.04-1.78,3.06-4.31,3.06-7.58c0-6.59-4.48-9.89-13.44-9.89H119.14z"/>
		<path fill="#555555" d="M188.66,392.42L183,377.23h-22.04l-5.52,15.19h-5.3l19.56-51.38h4.8l19.46,51.38H188.66z M173,350.04
			c-0.17-0.45-0.34-0.98-0.52-1.58c-0.18-0.6-0.33-1.28-0.45-2.04h-0.14c-0.14,0.76-0.3,1.45-0.48,2.04
			c-0.18,0.6-0.35,1.12-0.52,1.58l-8.31,22.86h18.81L173,350.04z"/>
		<path fill="#555555" d="M254.94,392.42v-24.04h-28.02v24.04h-4.77v-51.38h4.77v23.04h28.02v-23.04h4.77v51.38H254.94z"/>
		<path fill="#555555" d="M306.32,392.42l-5.66-15.19h-22.04l-5.52,15.19h-5.3l19.56-51.38h4.8l19.46,51.38H306.32z M290.67,350.04
			c-0.17-0.45-0.34-0.98-0.52-1.58c-0.18-0.6-0.33-1.28-0.45-2.04h-0.14c-0.14,0.76-0.3,1.45-0.48,2.04
			c-0.18,0.6-0.35,1.12-0.52,1.58l-8.31,22.86h18.8L290.67,350.04z"/>
		<path fill="#555555" d="M319.72,392.42v-51.38h14.05c2.13,0,4.04,0.29,5.75,0.86s3.17,1.38,4.37,2.42s2.13,2.29,2.78,3.74
			c0.64,1.46,0.97,3.06,0.97,4.8c0,1.48-0.2,2.87-0.61,4.16c-0.41,1.29-0.99,2.47-1.76,3.53c-0.76,1.06-1.7,1.98-2.81,2.76
			s-2.37,1.39-3.78,1.84v0.14c1.72,0.17,3.28,0.59,4.69,1.25c1.41,0.67,2.62,1.54,3.62,2.62c1,1.07,1.78,2.33,2.33,3.78
			s0.82,3.03,0.82,4.75c0,2.17-0.39,4.16-1.18,5.97c-0.79,1.8-1.89,3.36-3.31,4.66s-3.11,2.31-5.07,3.03s-4.12,1.08-6.49,1.08
			h-14.37V392.42z M324.49,345.41v18.24h6.67c1.74,0,3.32-0.23,4.73-0.68c1.41-0.45,2.62-1.11,3.62-1.97c1-0.86,1.77-1.9,2.31-3.12
			s0.81-2.59,0.81-4.12c0-5.57-3.46-8.35-10.39-8.35H324.49z M324.49,367.95v20.14h8.85c3.8,0,6.72-0.89,8.76-2.67
			c2.04-1.78,3.06-4.31,3.06-7.58c0-6.59-4.48-9.89-13.44-9.89H324.49z"/>
		<path fill="#555555" d="M360.71,392.42v-51.38h25.05v4.37h-20.28v18.85h18.78v4.3h-18.78v19.53h21.43v4.34h-26.2V392.42z"/>
		<path fill="#555555" d="M425.6,392.42l-7.74-14.73c-0.76-1.46-1.5-2.67-2.22-3.65s-1.46-1.76-2.22-2.35
			c-0.76-0.58-1.58-1-2.45-1.25c-0.87-0.25-1.85-0.38-2.92-0.38h-5.66v22.36h-4.77v-51.38h14.8c1.93,0,3.8,0.29,5.61,0.86
			c1.8,0.57,3.41,1.42,4.82,2.54s2.54,2.53,3.39,4.23s1.27,3.67,1.27,5.91c0,1.82-0.27,3.49-0.82,5.02
			c-0.55,1.53-1.33,2.88-2.35,4.07s-2.25,2.19-3.69,3.01s-3.08,1.44-4.89,1.84v0.14c0.69,0.29,1.33,0.66,1.9,1.11s1.13,1,1.67,1.65
			s1.07,1.39,1.59,2.22c0.53,0.84,1.08,1.79,1.65,2.87l8.64,15.91H425.6z M402.38,345.41v20.32h8.53c1.72,0,3.3-0.25,4.73-0.75
			s2.66-1.22,3.67-2.15s1.8-2.05,2.36-3.37s0.84-2.79,0.84-4.44c0-2.99-0.96-5.33-2.88-7.04c-1.92-1.71-4.7-2.56-8.33-2.56h-8.92
			V345.41z"/>
	</g>
</g>
</svg>
